<svg xmlns="http://www.w3.org/2000/svg" version="1.1" xmlns:xlink="http://www.w3.org/1999/xlink" xmlns:svgjs="http://svgjs.dev/svgjs" width="1500" height="1500" viewBox="0 0 1500 1500"><rect width="1500" height="1500" fill="#ffffff"></rect><g transform="matrix(0.6666666666666666,0,0,0.6666666666666666,249.39435428618071,551.1678560375849)"><svg viewBox="0 0 396 158" data-background-color="#ffffff" preserveAspectRatio="xMidYMid meet" height="598" width="1500" xmlns="http://www.w3.org/2000/svg" xmlns:xlink="http://www.w3.org/1999/xlink"><g id="tight-bounds" transform="matrix(1,0,0,1,0.23983570267245113,-0.1986319078722829)"><svg viewBox="0 0 395.52 158.39726381574457" height="158.39726381574457" width="395.52"><g><svg viewBox="0 0 395.52 158.39726381574457" height="158.39726381574457" width="395.52"><g transform="matrix(1,0,0,1,0,110.16506855259394)"><svg viewBox="0 0 395.52 48.23219526315064" height="48.23219526315064" width="395.52"><g id="textblocktransform"><svg viewBox="0 0 395.52 48.23219526315064" height="48.23219526315064" width="395.52" id="textblock"><g><svg viewBox="0 0 395.52 32.42833088790799" height="32.42833088790799" width="395.52"><g transform="matrix(1,0,0,1,0,0)"><svg width="395.52" viewBox="1.54968 -33.880246506805406 553.6888600000002 45.39645650680541" height="32.42833088790799" data-palette-color="#ff5858"><path d="M1.55-20.237l17.978-1.611 0.32 3.576-13.556 1.215 0.986 10.996 11.524-1.033 0.32 3.576-11.524 1.032 1.22 13.606-4.422 0.396zM34.825-15.269v0c1.728-0.14 3.309 0.019 4.744 0.477 1.429 0.459 2.671 1.178 3.727 2.156 1.049 0.978 1.897 2.197 2.544 3.656 0.646 1.452 1.045 3.106 1.196 4.959v0c0.152 1.874 0.027 3.58-0.377 5.117-0.403 1.544-1.043 2.884-1.921 4.019-0.884 1.135-1.994 2.045-3.33 2.729-1.342 0.684-2.877 1.097-4.605 1.237v0c-1.721 0.14-3.302-0.019-4.744-0.478-1.442-0.458-2.694-1.176-3.757-2.153-1.056-0.978-1.907-2.196-2.554-3.655-0.646-1.452-1.046-3.116-1.198-4.989v0c-0.151-1.854-0.024-3.55 0.379-5.088 0.403-1.544 1.047-2.884 1.931-4.019 0.891-1.136 2.011-2.046 3.36-2.731 1.349-0.685 2.884-1.097 4.605-1.237zM36.534 5.771v0c1.15-0.093 2.133-0.374 2.952-0.841 0.825-0.462 1.493-1.094 2.003-1.899 0.51-0.804 0.86-1.765 1.05-2.884 0.197-1.12 0.238-2.38 0.124-3.783v0c-0.114-1.402-0.358-2.64-0.733-3.712-0.368-1.074-0.869-1.966-1.502-2.678-0.633-0.711-1.395-1.234-2.285-1.57-0.883-0.336-1.9-0.458-3.049-0.364v0c-1.156 0.094-2.15 0.379-2.981 0.854-0.831 0.475-1.501 1.115-2.011 1.919-0.51 0.804-0.863 1.766-1.06 2.885-0.19 1.119-0.228 2.38-0.114 3.782v0c0.114 1.402 0.355 2.64 0.723 3.714 0.375 1.073 0.879 1.965 1.512 2.676 0.633 0.711 1.397 1.228 2.293 1.55 0.896 0.329 1.922 0.446 3.078 0.351zM61.055-17.269v0c1.729-0.125 3.309 0.048 4.74 0.519 1.424 0.472 2.66 1.201 3.708 2.188 1.041 0.987 1.878 2.213 2.512 3.678 0.634 1.458 1.018 3.115 1.152 4.969v0c0.136 1.875-0.005 3.58-0.421 5.114-0.416 1.541-1.068 2.875-1.956 4.002-0.894 1.128-2.012 2.027-3.354 2.699-1.348 0.673-2.887 1.071-4.615 1.197v0c-1.722 0.125-3.302-0.048-4.74-0.519-1.438-0.471-2.684-1.199-3.738-2.185-1.047-0.987-1.888-2.213-2.522-3.677-0.634-1.458-1.019-3.125-1.155-5v0c-0.134-1.855 0.007-3.55 0.424-5.084 0.416-1.541 1.072-2.875 1.966-4.003 0.901-1.128 2.029-2.029 3.383-2.701 1.355-0.673 2.893-1.072 4.616-1.197zM62.581 3.786v0c1.15-0.083 2.137-0.355 2.958-0.816 0.829-0.454 1.502-1.081 2.02-1.881 0.517-0.799 0.875-1.758 1.075-2.875 0.206-1.118 0.259-2.378 0.157-3.781v0c-0.102-1.403-0.335-2.643-0.701-3.72-0.359-1.077-0.852-1.974-1.478-2.69-0.627-0.717-1.384-1.247-2.271-1.59-0.88-0.344-1.896-0.474-3.046-0.391v0c-1.157 0.084-2.153 0.36-2.988 0.829-0.835 0.468-1.511 1.102-2.028 1.901-0.517 0.799-0.879 1.758-1.085 2.876-0.2 1.117-0.249 2.378-0.147 3.781v0c0.102 1.403 0.332 2.643 0.691 3.719 0.365 1.076 0.862 1.973 1.488 2.69 0.627 0.717 1.387 1.24 2.279 1.569 0.893 0.336 1.918 0.463 3.076 0.379zM98.307 4.391l-2.545 0.163c-0.306 0.02-0.56-0.034-0.762-0.162-0.201-0.121-0.329-0.333-0.381-0.637v0l-0.621-2.806c-0.92 1.275-1.996 2.322-3.226 3.143-1.223 0.826-2.676 1.294-4.359 1.401v0c-1.337 0.086-2.568-0.099-3.693-0.555-1.118-0.456-2.099-1.168-2.943-2.137-0.836-0.962-1.513-2.184-2.028-3.668-0.516-1.483-0.837-3.21-0.963-5.179v0c-0.112-1.743 0.014-3.384 0.376-4.924 0.362-1.54 0.944-2.886 1.746-4.039 0.801-1.154 1.807-2.083 3.018-2.789 1.21-0.712 2.607-1.119 4.19-1.22v0c1.43-0.092 2.67 0.07 3.719 0.483 1.048 0.407 1.997 1.031 2.845 1.872v0l-0.839-13.103 4.262-0.273zM87.582 1.991v0c1.337-0.086 2.482-0.469 3.433-1.152 0.951-0.689 1.82-1.616 2.608-2.782v0l-0.734-11.456c-0.824-0.969-1.691-1.629-2.602-1.978-0.918-0.355-1.916-0.499-2.993-0.43v0c-2.149 0.138-3.756 1.025-4.82 2.663-1.058 1.638-1.493 3.91-1.307 6.818v0c0.098 1.53 0.315 2.836 0.652 3.916 0.336 1.081 0.777 1.958 1.32 2.631 0.544 0.667 1.189 1.143 1.936 1.43 0.746 0.286 1.582 0.4 2.507 0.34zM123.104-10.231l-2.956 0.151 0.678 13.233-4.404 0.225-1.632-31.838 8.719-0.447c1.937-0.099 3.623 0.021 5.055 0.362 1.439 0.34 2.635 0.87 3.586 1.589 0.952 0.726 1.672 1.62 2.16 2.683 0.495 1.069 0.778 2.283 0.848 3.641v0c0.057 1.112-0.056 2.162-0.34 3.151-0.283 0.982-0.715 1.879-1.294 2.69-0.586 0.804-1.314 1.509-2.184 2.115-0.877 0.606-1.884 1.081-3.021 1.426v0c0.289 0.165 0.559 0.352 0.81 0.56 0.257 0.2 0.504 0.451 0.739 0.753v0l9.204 12.155-3.925 0.201c-0.759 0.039-1.364-0.231-1.813-0.809v0l-8.121-10.948c-0.258-0.341-0.534-0.58-0.828-0.719-0.288-0.145-0.715-0.204-1.281-0.174zM119.372-25.22l0.611 11.924 4.145-0.212c1.165-0.06 2.179-0.262 3.043-0.607 0.863-0.345 1.581-0.805 2.152-1.382 0.571-0.583 0.983-1.265 1.237-2.046 0.26-0.781 0.367-1.634 0.319-2.559v0c-0.195-3.795-2.592-5.575-7.193-5.339v0zM151.64-22.415v0c1.419-0.06 2.744 0.117 3.976 0.531 1.232 0.421 2.314 1.066 3.245 1.934 0.924 0.862 1.664 1.938 2.219 3.229 0.555 1.284 0.869 2.776 0.941 4.474v0c0.028 0.666-0.023 1.109-0.154 1.327-0.137 0.226-0.399 0.347-0.785 0.364v0l-15.856 0.674c0.096 1.484 0.355 2.774 0.776 3.871 0.413 1.09 0.965 1.984 1.655 2.682 0.684 0.698 1.486 1.211 2.408 1.539 0.921 0.321 1.938 0.458 3.05 0.411v0c1.032-0.044 1.923-0.199 2.673-0.464 0.749-0.265 1.391-0.556 1.924-0.873 0.527-0.309 0.972-0.592 1.335-0.847 0.356-0.249 0.674-0.379 0.955-0.391v0c0.173-0.007 0.328 0.023 0.464 0.09 0.13 0.068 0.247 0.163 0.352 0.286v0l1.276 1.507c-0.506 0.649-1.109 1.218-1.809 1.708-0.7 0.497-1.456 0.909-2.27 1.238-0.807 0.335-1.65 0.594-2.529 0.778-0.873 0.184-1.736 0.294-2.588 0.33v0c-1.652 0.07-3.182-0.142-4.592-0.635-1.415-0.487-2.652-1.245-3.71-2.275-1.052-1.036-1.894-2.328-2.527-3.876-0.633-1.554-0.994-3.357-1.08-5.409v0c-0.07-1.645 0.118-3.195 0.563-4.648 0.452-1.454 1.135-2.731 2.049-3.83 0.914-1.093 2.052-1.969 3.411-2.628 1.353-0.658 2.896-1.024 4.628-1.097zM151.842-19.311v0c-1.985 0.084-3.532 0.731-4.642 1.939-1.103 1.215-1.758 2.837-1.965 4.868v0l12.918-0.55c-0.041-0.952-0.214-1.823-0.521-2.61-0.307-0.788-0.733-1.457-1.276-2.007-0.544-0.551-1.196-0.973-1.956-1.269-0.766-0.288-1.619-0.412-2.558-0.371zM183.329-20.512l-1.055 1.588c-0.127 0.185-0.249 0.322-0.366 0.413-0.117 0.097-0.288 0.15-0.515 0.158v0c-0.247 0.009-0.5-0.079-0.759-0.264-0.267-0.184-0.597-0.389-0.992-0.616-0.401-0.22-0.882-0.416-1.442-0.59-0.566-0.174-1.253-0.247-2.059-0.219v0c-1.066 0.037-2.002 0.276-2.806 0.718-0.805 0.442-1.464 1.055-1.978 1.84-0.513 0.785-0.89 1.732-1.132 2.841-0.248 1.109-0.349 2.35-0.301 3.723v0c0.05 1.426 0.243 2.687 0.582 3.782 0.338 1.096 0.794 2.014 1.367 2.754 0.579 0.74 1.262 1.297 2.049 1.67 0.793 0.366 1.673 0.532 2.639 0.499v0c0.939-0.033 1.705-0.179 2.296-0.441 0.584-0.267 1.075-0.551 1.471-0.851 0.396-0.307 0.723-0.585 0.982-0.835 0.258-0.256 0.53-0.389 0.817-0.398v0c0.326-0.011 0.591 0.116 0.793 0.382v0l1.294 1.516c-0.498 0.644-1.052 1.207-1.663 1.689-0.617 0.488-1.283 0.892-1.999 1.21-0.716 0.325-1.464 0.575-2.245 0.749-0.781 0.174-1.575 0.275-2.381 0.303v0c-1.392 0.048-2.705-0.183-3.937-0.694-1.232-0.504-2.312-1.26-3.24-2.269-0.936-1.015-1.683-2.27-2.242-3.764-0.566-1.495-0.882-3.211-0.95-5.15v0c-0.061-1.759 0.119-3.396 0.54-4.912 0.415-1.509 1.053-2.818 1.914-3.929 0.855-1.117 1.932-2.002 3.23-2.654 1.298-0.652 2.803-1.008 4.516-1.067v0c1.619-0.056 3.041 0.164 4.265 0.662 1.232 0.504 2.334 1.223 3.307 2.156zM187.907 0.374zM188.099-23.372l4.269-0.127 0.707 23.719-4.268 0.127zM192.966-30.941v0c0.012 0.406-0.056 0.792-0.206 1.157-0.149 0.371-0.363 0.694-0.641 0.97-0.272 0.275-0.589 0.498-0.95 0.668-0.362 0.178-0.742 0.272-1.143 0.284v0c-0.406 0.012-0.789-0.06-1.146-0.216-0.365-0.149-0.684-0.353-0.959-0.611-0.275-0.259-0.497-0.569-0.668-0.931-0.171-0.355-0.262-0.736-0.274-1.142v0c-0.013-0.42 0.056-0.815 0.204-1.187 0.149-0.365 0.353-0.688 0.612-0.968 0.258-0.288 0.565-0.517 0.92-0.688 0.348-0.17 0.726-0.262 1.132-0.274v0c0.4-0.012 0.785 0.057 1.157 0.206 0.371 0.149 0.701 0.359 0.989 0.63 0.295 0.265 0.527 0.575 0.698 0.93 0.171 0.362 0.263 0.753 0.275 1.172zM204.438 7.953l-4.269 0.1-0.748-31.731 2.55-0.06c0.307-0.007 0.558 0.057 0.754 0.192 0.197 0.135 0.315 0.356 0.356 0.662v0l0.475 2.75c0.978-1.237 2.104-2.24 3.38-3.011 1.275-0.777 2.753-1.185 4.432-1.224v0c1.36-0.032 2.595 0.202 3.708 0.702 1.112 0.501 2.067 1.252 2.864 2.254 0.804 1.001 1.433 2.247 1.888 3.736 0.455 1.496 0.706 3.231 0.753 5.204v0c0.041 1.746-0.157 3.381-0.594 4.905-0.431 1.517-1.073 2.843-1.927 3.977-0.854 1.127-1.906 2.019-3.158 2.675-1.245 0.663-2.66 1.013-4.247 1.05v0c-1.433 0.034-2.665-0.181-3.696-0.643-1.031-0.463-1.954-1.121-2.767-1.975v0zM210.039-20.917v0c-1.326 0.031-2.485 0.365-3.477 1.002-0.998 0.644-1.904 1.539-2.718 2.685v0l0.27 11.447c0.77 1.002 1.607 1.699 2.51 2.091 0.909 0.392 1.914 0.575 3.014 0.549v0c2.166-0.051 3.817-0.873 4.953-2.467 1.136-1.601 1.67-3.854 1.601-6.76v0c-0.036-1.54-0.201-2.856-0.493-3.949-0.292-1.093-0.704-1.984-1.233-2.672-0.523-0.695-1.158-1.193-1.906-1.495-0.741-0.309-1.581-0.453-2.521-0.431zM235.175-24.744v0c1.42-0.021 2.74 0.193 3.96 0.641 1.22 0.455 2.284 1.13 3.19 2.023 0.9 0.887 1.61 1.983 2.129 3.289 0.519 1.299 0.792 2.799 0.817 4.498v0c0.01 0.667-0.054 1.108-0.19 1.323-0.143 0.222-0.408 0.336-0.795 0.342v0l-15.869 0.235c0.055 1.486 0.278 2.783 0.668 3.891 0.383 1.101 0.91 2.01 1.581 2.727 0.664 0.717 1.452 1.252 2.364 1.605 0.912 0.346 1.924 0.511 3.038 0.495v0c1.033-0.015 1.928-0.145 2.684-0.39 0.756-0.245 1.406-0.518 1.948-0.819 0.536-0.295 0.988-0.565 1.358-0.81 0.363-0.239 0.685-0.36 0.965-0.365v0c0.173-0.003 0.327 0.032 0.462 0.104 0.128 0.071 0.243 0.17 0.344 0.294v0l1.233 1.542c-0.524 0.635-1.143 1.187-1.856 1.658-0.713 0.477-1.481 0.869-2.302 1.174-0.815 0.312-1.665 0.548-2.55 0.708-0.878 0.16-1.743 0.246-2.597 0.259v0c-1.653 0.025-3.177-0.23-4.571-0.762-1.401-0.526-2.617-1.318-3.646-2.376-1.023-1.065-1.829-2.38-2.419-3.945-0.59-1.571-0.9-3.384-0.931-5.437v0c-0.024-1.646 0.206-3.19 0.692-4.631 0.492-1.441 1.21-2.698 2.154-3.772 0.944-1.067 2.105-1.911 3.483-2.532 1.371-0.62 2.923-0.943 4.656-0.969zM235.291-21.636v0c-1.986 0.029-3.551 0.633-4.694 1.81-1.136 1.184-1.835 2.788-2.099 4.812v0l12.929-0.192c-0.014-0.953-0.164-1.828-0.449-2.624-0.285-0.796-0.692-1.477-1.22-2.042-0.528-0.566-1.168-1.006-1.92-1.321-0.758-0.309-1.607-0.456-2.547-0.443zM269.263-14.187l-2.96 0.008 0.035 13.25-4.41 0.012-0.084-31.88 8.73-0.023c1.94-0.005 3.617 0.197 5.031 0.607 1.421 0.41 2.589 0.997 3.505 1.76 0.915 0.771 1.591 1.699 2.027 2.785 0.443 1.092 0.666 2.318 0.67 3.678v0c0.003 1.113-0.161 2.157-0.492 3.132-0.331 0.968-0.805 1.842-1.423 2.623-0.625 0.775-1.386 1.444-2.285 2.006-0.905 0.562-1.934 0.988-3.086 1.279v0c0.28 0.179 0.541 0.379 0.781 0.598 0.247 0.213 0.481 0.475 0.702 0.788v0l8.604 12.587-3.93 0.01c-0.76 0.002-1.351-0.296-1.773-0.895v0l-7.58-11.33c-0.241-0.353-0.505-0.605-0.792-0.758-0.28-0.159-0.704-0.238-1.27-0.237zM266.263-29.339l0.031 11.94 4.15-0.011c1.167-0.003 2.19-0.156 3.069-0.458 0.879-0.302 1.618-0.728 2.217-1.276 0.599-0.555 1.043-1.216 1.334-1.983 0.298-0.767 0.446-1.615 0.444-2.541v0c-0.01-3.8-2.318-5.694-6.925-5.682v0zM298.356-24.971v0c1.42 0.009 2.735 0.25 3.946 0.724 1.21 0.481 2.26 1.177 3.147 2.09 0.881 0.905 1.568 2.016 2.06 3.332 0.492 1.31 0.733 2.814 0.723 4.515v0c-0.004 0.667-0.077 1.106-0.218 1.318-0.148 0.219-0.415 0.327-0.802 0.325v0l-15.87-0.096c0.024 1.487 0.22 2.788 0.586 3.904 0.36 1.109 0.868 2.029 1.524 2.759 0.649 0.731 1.426 1.282 2.33 1.654 0.904 0.365 1.913 0.552 3.026 0.559v0c1.033 0.006 1.931-0.105 2.692-0.334 0.761-0.229 1.416-0.488 1.965-0.778 0.542-0.283 1-0.544 1.375-0.782 0.368-0.231 0.692-0.346 0.972-0.344v0c0.173 0.001 0.326 0.039 0.459 0.113 0.126 0.074 0.239 0.175 0.338 0.302v0l1.201 1.567c-0.537 0.623-1.167 1.163-1.89 1.619-0.723 0.462-1.498 0.838-2.327 1.126-0.822 0.295-1.676 0.513-2.564 0.654-0.881 0.141-1.748 0.209-2.601 0.204v0c-1.653-0.01-3.172-0.296-4.555-0.857-1.39-0.555-2.588-1.372-3.595-2.452-1-1.086-1.779-2.418-2.336-3.994-0.557-1.583-0.829-3.402-0.817-5.455v0c0.01-1.647 0.273-3.185 0.788-4.616 0.522-1.43 1.266-2.672 2.233-3.726 0.966-1.047 2.145-1.867 3.535-2.459 1.384-0.592 2.942-0.882 4.675-0.872zM298.407-21.86v0c-1.987-0.012-3.563 0.558-4.73 1.711-1.16 1.16-1.893 2.749-2.199 4.767v0l12.93 0.078c0.006-0.953-0.126-1.831-0.394-2.632-0.268-0.802-0.661-1.491-1.178-2.067-0.517-0.576-1.147-1.03-1.892-1.362-0.751-0.325-1.597-0.49-2.537-0.495zM329.916-21.53l-1.131 1.534c-0.136 0.178-0.264 0.31-0.386 0.395-0.121 0.092-0.295 0.136-0.522 0.133v0c-0.247-0.003-0.495-0.104-0.746-0.301-0.257-0.197-0.578-0.418-0.96-0.663-0.39-0.239-0.86-0.459-1.411-0.66-0.557-0.201-1.239-0.307-2.046-0.318v0c-1.067-0.015-2.013 0.179-2.839 0.581-0.826 0.402-1.514 0.982-2.064 1.742-0.551 0.759-0.973 1.687-1.268 2.782-0.302 1.096-0.462 2.33-0.482 3.704v0c-0.02 1.427 0.113 2.695 0.398 3.806 0.285 1.111 0.695 2.05 1.231 2.817 0.543 0.768 1.198 1.357 1.966 1.767 0.774 0.404 1.645 0.613 2.611 0.627v0c0.94 0.013 1.712-0.096 2.315-0.328 0.597-0.238 1.1-0.498 1.511-0.78 0.411-0.288 0.751-0.55 1.021-0.785 0.27-0.243 0.548-0.362 0.835-0.359v0c0.327 0.005 0.585 0.145 0.774 0.421v0l1.218 1.577c-0.529 0.619-1.109 1.155-1.742 1.606-0.64 0.458-1.325 0.828-2.056 1.111-0.731 0.29-1.49 0.503-2.279 0.639-0.789 0.136-1.586 0.198-2.392 0.187v0c-1.393-0.019-2.693-0.314-3.899-0.884-1.206-0.563-2.248-1.371-3.126-2.424-0.885-1.059-1.571-2.349-2.057-3.868-0.492-1.52-0.725-3.25-0.698-5.19v0c0.024-1.76 0.284-3.386 0.777-4.88 0.487-1.487 1.188-2.764 2.103-3.831 0.908-1.074 2.027-1.905 3.355-2.494 1.328-0.588 2.849-0.871 4.562-0.847v0c1.62 0.022 3.029 0.312 4.229 0.868 1.206 0.563 2.272 1.335 3.198 2.315zM344.407-24.3v0c1.733 0.037 3.29 0.358 4.671 0.961 1.374 0.603 2.536 1.445 3.486 2.525 0.944 1.081 1.663 2.38 2.157 3.898 0.494 1.511 0.721 3.196 0.681 5.056v0c-0.04 1.88-0.34 3.564-0.898 5.051-0.559 1.495-1.333 2.762-2.323 3.801-0.996 1.039-2.193 1.83-3.592 2.374-1.405 0.543-2.974 0.796-4.707 0.759v0c-1.726-0.037-3.283-0.357-4.67-0.961-1.387-0.603-2.559-1.445-3.517-2.526-0.95-1.081-1.673-2.38-2.167-3.898-0.494-1.511-0.721-3.206-0.68-5.086v0c0.04-1.86 0.339-3.534 0.898-5.021 0.559-1.495 1.336-2.762 2.332-3.801 1.003-1.039 2.21-1.83 3.622-2.373 1.412-0.543 2.981-0.796 4.707-0.759zM343.953-3.195v0c1.153 0.025 2.16-0.154 3.023-0.535 0.868-0.375 1.597-0.936 2.186-1.683 0.59-0.747 1.036-1.668 1.34-2.762 0.31-1.094 0.481-2.344 0.511-3.75v0c0.03-1.406-0.086-2.662-0.349-3.768-0.256-1.106-0.663-2.045-1.22-2.817-0.557-0.772-1.261-1.371-2.112-1.796-0.844-0.425-1.843-0.65-2.996-0.675v0c-1.16-0.025-2.177 0.157-3.052 0.545-0.875 0.388-1.608 0.956-2.197 1.703-0.59 0.747-1.039 1.668-1.35 2.762-0.304 1.094-0.471 2.344-0.501 3.75v0c-0.03 1.406 0.083 2.662 0.339 3.768 0.263 1.106 0.673 2.045 1.23 2.817 0.557 0.772 1.264 1.364 2.122 1.776 0.858 0.419 1.867 0.64 3.026 0.665zM364.678 0.329l-4.268-0.136 0.758-23.718 2.519 0.08c0.32 0.01 0.571 0.088 0.752 0.234 0.182 0.146 0.285 0.373 0.309 0.68v0l0.282 2.431c0.47-0.519 0.959-0.99 1.466-1.414 0.507-0.431 1.05-0.804 1.627-1.119 0.577-0.315 1.191-0.549 1.843-0.701 0.652-0.159 1.341-0.227 2.068-0.204v0c1.633 0.052 2.948 0.541 3.945 1.466 1.004 0.919 1.699 2.139 2.084 3.659v0c0.368-0.862 0.841-1.594 1.421-2.196 0.573-0.595 1.205-1.082 1.898-1.46 0.693-0.385 1.432-0.658 2.217-0.82 0.779-0.162 1.571-0.23 2.378-0.204v0c2.585 0.083 4.563 0.923 5.932 2.521 1.363 1.598 1.999 3.836 1.907 6.714v0l-0.483 15.103-4.268-0.137 0.483-15.102c0.059-1.846-0.316-3.255-1.126-4.228-0.809-0.973-2-1.485-3.572-1.535v0c-0.706-0.023-1.38 0.073-2.021 0.286-0.641 0.22-1.205 0.558-1.693 1.016-0.495 0.464-0.894 1.039-1.196 1.723-0.309 0.684-0.478 1.489-0.507 2.415v0l-0.482 15.102-4.268-0.136 0.482-15.103c0.06-1.892-0.284-3.311-1.034-4.255-0.757-0.951-1.895-1.451-3.414-1.5v0c-1.033-0.033-2.011 0.209-2.935 0.727-0.923 0.511-1.77 1.231-2.54 2.16v0zM404.183 1.738l-4.266-0.192 1.071-23.706 2.518 0.113c0.32 0.014 0.57 0.096 0.749 0.244 0.18 0.148 0.28 0.376 0.3 0.685v0l0.25 2.433c0.477-0.512 0.972-0.977 1.485-1.394 0.513-0.424 1.06-0.79 1.641-1.097 0.581-0.307 1.199-0.533 1.852-0.677 0.654-0.151 1.344-0.21 2.07-0.177v0c1.632 0.074 2.94 0.58 3.926 1.519 0.992 0.932 1.671 2.161 2.036 3.685v0c0.379-0.857 0.862-1.583 1.449-2.176 0.58-0.588 1.219-1.066 1.917-1.435 0.698-0.376 1.44-0.639 2.228-0.791 0.781-0.152 1.574-0.209 2.38-0.173v0c2.584 0.117 4.55 0.983 5.899 2.599 1.342 1.616 1.948 3.862 1.818 6.739v0l-0.682 15.095-4.266-0.193 0.682-15.095c0.083-1.845-0.273-3.259-1.07-4.242-0.796-0.984-1.981-1.511-3.552-1.582v0c-0.706-0.032-1.381 0.054-2.024 0.259-0.644 0.211-1.212 0.543-1.706 0.994-0.501 0.458-0.907 1.027-1.218 1.707-0.318 0.68-0.497 1.482-0.54 2.408v0l-0.681 15.094-4.266-0.192 0.682-15.095c0.085-1.891-0.241-3.314-0.979-4.268-0.744-0.961-1.875-1.476-3.393-1.545v0c-1.032-0.047-2.014 0.183-2.945 0.688-0.93 0.499-1.786 1.207-2.568 2.126v0zM450.179-20.108v0c1.418 0.08 2.719 0.387 3.905 0.922 1.185 0.541 2.198 1.289 3.038 2.244 0.835 0.949 1.464 2.092 1.89 3.432 0.426 1.333 0.591 2.848 0.495 4.545v0c-0.038 0.666-0.132 1.101-0.285 1.306-0.159 0.211-0.431 0.306-0.817 0.285v0l-15.845-0.894c-0.05 1.486 0.079 2.796 0.39 3.928 0.304 1.126 0.765 2.07 1.382 2.832 0.611 0.762 1.359 1.352 2.244 1.77 0.885 0.41 1.883 0.647 2.995 0.709v0c1.032 0.058 1.934-0.008 2.705-0.198 0.772-0.19 1.439-0.416 2.002-0.678 0.555-0.256 1.026-0.493 1.412-0.712 0.379-0.212 0.709-0.311 0.988-0.294v0c0.173 0.01 0.324 0.055 0.453 0.135 0.122 0.08 0.23 0.187 0.323 0.319v0l1.12 1.626c-0.568 0.596-1.224 1.103-1.969 1.521-0.745 0.425-1.539 0.761-2.38 1.008-0.836 0.253-1.7 0.428-2.594 0.525-0.887 0.097-1.756 0.121-2.608 0.073v0c-1.651-0.093-3.153-0.455-4.506-1.086-1.36-0.624-2.516-1.501-3.467-2.629-0.944-1.135-1.655-2.504-2.133-4.107-0.477-1.609-0.657-3.439-0.541-5.489v0c0.093-1.644 0.432-3.167 1.019-4.57 0.593-1.402 1.399-2.605 2.417-3.61 1.018-0.998 2.236-1.757 3.654-2.277 1.412-0.521 2.983-0.733 4.713-0.636zM450.074-16.999v0c-1.984-0.112-3.587 0.379-4.81 1.472-1.217 1.1-2.029 2.65-2.436 4.65v0l12.909 0.728c0.054-0.952-0.033-1.835-0.261-2.649-0.228-0.814-0.585-1.522-1.072-2.124-0.487-0.602-1.094-1.087-1.821-1.455-0.734-0.362-1.57-0.569-2.509-0.622zM468.102 5.107l-4.261-0.274 1.526-23.681 2.535 0.163c0.306 0.02 0.554 0.106 0.745 0.259 0.184 0.152 0.283 0.382 0.296 0.69v0l0.197 2.538c1.091-1.065 2.287-1.9 3.588-2.504 1.302-0.604 2.777-0.853 4.428-0.747v0c1.291 0.083 2.408 0.369 3.351 0.857 0.95 0.495 1.733 1.154 2.348 1.975 0.608 0.827 1.046 1.804 1.315 2.931 0.268 1.126 0.359 2.361 0.272 3.705v0l-0.971 15.078-4.262-0.274 0.972-15.079c0.114-1.763-0.197-3.163-0.932-4.198-0.735-1.036-1.917-1.607-3.547-1.712v0c-1.211-0.078-2.36 0.135-3.449 0.64-1.082 0.512-2.091 1.245-3.027 2.2v0zM508.94 7.967l-2.544-0.187c-0.306-0.022-0.55-0.111-0.732-0.264-0.183-0.147-0.28-0.375-0.291-0.683v0l-0.231-2.865c-1.086 1.137-2.294 2.028-3.625 2.672-1.325 0.652-2.828 0.916-4.51 0.792v0c-1.336-0.098-2.531-0.45-3.583-1.054-1.045-0.605-1.92-1.444-2.623-2.519-0.697-1.067-1.2-2.371-1.508-3.911-0.308-1.54-0.39-3.294-0.245-5.262v0c0.128-1.742 0.476-3.351 1.045-4.826 0.569-1.476 1.33-2.73 2.282-3.763 0.951-1.033 2.075-1.816 3.37-2.35 1.296-0.54 2.736-0.752 4.319-0.636v0c1.429 0.105 2.635 0.434 3.617 0.987 0.983 0.547 1.837 1.294 2.563 2.244v0l0.96-13.095 4.259 0.312zM498.643 4.123v0c1.336 0.098 2.523-0.126 3.559-0.671 1.036-0.552 2.024-1.352 2.963-2.4v0l0.84-11.449c-0.683-1.073-1.452-1.844-2.307-2.315-0.861-0.478-1.83-0.756-2.907-0.835v0c-2.148-0.157-3.86 0.502-5.138 1.98-1.271 1.478-2.014 3.669-2.227 6.574v0c-0.112 1.529-0.075 2.852 0.11 3.969 0.186 1.117 0.502 2.046 0.949 2.787 0.447 0.735 1.021 1.295 1.721 1.68 0.7 0.386 1.513 0.612 2.437 0.68zM527.226-14.71v0c1.415 0.116 2.708 0.456 3.879 1.021 1.171 0.571 2.164 1.345 2.98 2.321 0.81 0.97 1.41 2.129 1.801 3.479 0.391 1.343 0.518 2.862 0.379 4.557v0c-0.055 0.664-0.16 1.097-0.317 1.298-0.164 0.207-0.439 0.295-0.825 0.263v0l-15.817-1.298c-0.088 1.484 0.008 2.797 0.289 3.937 0.275 1.133 0.711 2.089 1.31 2.866 0.592 0.778 1.324 1.386 2.198 1.826 0.874 0.433 1.866 0.695 2.976 0.787v0c1.03 0.085 1.933 0.042 2.709-0.129 0.777-0.17 1.449-0.379 2.018-0.627 0.562-0.242 1.038-0.467 1.43-0.675 0.385-0.203 0.716-0.292 0.996-0.27v0c0.173 0.014 0.323 0.063 0.449 0.148 0.12 0.083 0.225 0.192 0.315 0.326v0l1.078 1.654c-0.583 0.581-1.252 1.071-2.007 1.471-0.756 0.406-1.558 0.722-2.406 0.946-0.842 0.232-1.711 0.385-2.606 0.458-0.889 0.074-1.759 0.076-2.609 0.007v0c-1.648-0.135-3.14-0.535-4.477-1.2-1.344-0.659-2.477-1.565-3.399-2.718-0.915-1.159-1.59-2.545-2.026-4.159-0.435-1.621-0.569-3.455-0.402-5.502v0c0.135-1.641 0.513-3.155 1.136-4.542 0.629-1.387 1.465-2.569 2.509-3.547 1.043-0.971 2.28-1.699 3.711-2.183 1.424-0.485 3-0.657 4.728-0.515zM527.041-11.605v0c-1.98-0.163-3.596 0.287-4.847 1.348-1.245 1.068-2.096 2.597-2.554 4.586v0l12.887 1.059c0.078-0.95 0.014-1.835-0.193-2.655-0.207-0.82-0.546-1.537-1.018-2.151-0.471-0.614-1.066-1.114-1.783-1.501-0.725-0.381-1.555-0.609-2.492-0.686zM544.293 10.928l-4.254-0.378 2.105-23.637 2.441 0.217c0.452 0.04 0.762 0.158 0.932 0.355 0.17 0.196 0.25 0.504 0.239 0.924v0l-0.021 3.502c0.869-1.495 1.876-2.647 3.019-3.455 1.143-0.808 2.461-1.146 3.955-1.014v0c0.505 0.045 0.968 0.14 1.39 0.285 0.429 0.145 0.809 0.353 1.14 0.623v0l-0.619 3.118c-0.082 0.394-0.325 0.573-0.731 0.537v0c-0.226-0.02-0.541-0.092-0.945-0.215-0.403-0.13-0.854-0.217-1.352-0.261v0c-0.724-0.064-1.374-0.012-1.951 0.158-0.571 0.17-1.097 0.448-1.581 0.833-0.483 0.392-0.922 0.878-1.314 1.459-0.393 0.581-0.768 1.254-1.124 2.018v0z" opacity="1" transform="matrix(1,0,0,1,0,0)" fill="#ff5858" class="wordmark-text-0" data-fill-palette-color="primary" id="text-0"></path></svg></g></svg></g><g transform="matrix(1,0,0,1,69.21599999999998,35.4837924119976)"><svg viewBox="0 0 257.088 12.748402851153042" height="12.748402851153042" width="257.088"><g transform="matrix(1,0,0,1,0,0)"><svg width="257.088" viewBox="1.34 -34.72 873.31 43.31" height="12.748402851153042" data-palette-color="#ff5858"><path d="M20.56-29.1L19.46-27.03Q19.09-26.34 18.46-26.34L18.46-26.34Q18.09-26.34 17.59-26.72 17.09-27.1 16.37-27.55 15.65-28 14.64-28.38 13.62-28.76 12.21-28.76L12.21-28.76Q10.86-28.76 9.85-28.38 8.84-28 8.17-27.33 7.5-26.66 7.15-25.77 6.81-24.88 6.81-23.85L6.81-23.85Q6.81-22.51 7.43-21.63 8.06-20.75 9.07-20.13 10.08-19.51 11.38-19.04 12.67-18.58 14.01-18.09 15.36-17.6 16.65-16.98 17.94-16.36 18.96-15.42 19.97-14.48 20.59-13.11 21.22-11.74 21.22-9.77L21.22-9.77Q21.22-7.64 20.53-5.8 19.85-3.96 18.54-2.59 17.24-1.22 15.33-0.44 13.43 0.34 10.99 0.34L10.99 0.34Q8.03 0.34 5.55-0.79 3.08-1.93 1.34-3.86L1.34-3.86 2.64-5.96Q2.81-6.23 3.06-6.38 3.32-6.54 3.66-6.54L3.66-6.54Q4.13-6.54 4.7-6.04 5.27-5.54 6.13-4.94 6.98-4.35 8.19-3.85 9.4-3.34 11.08-3.34L11.08-3.34Q12.5-3.34 13.6-3.76 14.7-4.17 15.47-4.93 16.24-5.69 16.64-6.75 17.04-7.81 17.04-9.11L17.04-9.11Q17.04-10.55 16.42-11.47 15.8-12.4 14.78-13.02 13.77-13.65 12.48-14.07 11.18-14.5 9.84-14.97 8.5-15.43 7.2-16.03 5.91-16.63 4.9-17.6 3.88-18.58 3.26-20.02 2.64-21.46 2.64-23.61L2.64-23.61Q2.64-25.29 3.27-26.89 3.91-28.49 5.11-29.72 6.32-30.96 8.09-31.7 9.86-32.45 12.16-32.45L12.16-32.45Q14.72-32.45 16.86-31.59 18.99-30.74 20.56-29.1L20.56-29.1ZM36.03-24.24L36.03-24.24Q38.18-24.24 40.01-23.54 41.84-22.83 43.19-21.46 44.53-20.09 45.29-18.12 46.04-16.14 46.04-13.57L46.04-13.57Q46.04-12.57 45.82-12.24 45.6-11.91 45.02-11.91L45.02-11.91 29.05-11.91Q29.1-9.67 29.66-8 30.22-6.32 31.21-5.22 32.2-4.13 33.57-3.58 34.93-3.03 36.62-3.03L36.62-3.03Q38.18-3.03 39.33-3.38 40.48-3.74 41.29-4.17 42.11-4.61 42.67-4.97 43.23-5.32 43.65-5.32L43.65-5.32Q43.92-5.32 44.11-5.21 44.31-5.1 44.46-4.91L44.46-4.91 45.68-3.34Q44.87-2.39 43.78-1.7 42.7-1 41.45-0.55 40.21-0.1 38.88 0.12 37.55 0.34 36.25 0.34L36.25 0.34Q33.76 0.34 31.66-0.49 29.56-1.32 28.04-2.94 26.51-4.57 25.66-6.95 24.8-9.33 24.8-12.43L24.8-12.43Q24.8-14.92 25.57-17.08 26.34-19.24 27.79-20.84 29.25-22.44 31.33-23.34 33.42-24.24 36.03-24.24ZM36.11-21.12L36.11-21.12Q33.1-21.12 31.36-19.36 29.61-17.6 29.17-14.55L29.17-14.55 42.19-14.55Q42.19-15.99 41.77-17.2 41.35-18.41 40.57-19.27 39.79-20.14 38.66-20.63 37.52-21.12 36.11-21.12ZM68.72 0L66.82 0Q66.18 0 65.84-0.2 65.5-0.39 65.38-1L65.38-1 64.84-3.22Q63.91-2.37 63.02-1.7 62.13-1.03 61.15-0.56 60.18-0.1 59.05 0.13 57.93 0.37 56.59 0.37L56.59 0.37Q55.2 0.37 53.99-0.01 52.78-0.39 51.86-1.18 50.95-1.98 50.42-3.16 49.9-4.35 49.9-5.96L49.9-5.96Q49.9-7.37 50.67-8.68 51.44-9.99 53.17-11.01 54.9-12.04 57.69-12.68 60.47-13.33 64.52-13.43L64.52-13.43 64.52-15.26Q64.52-18.04 63.34-19.45 62.15-20.85 59.88-20.85L59.88-20.85Q58.37-20.85 57.33-20.46 56.29-20.07 55.54-19.6 54.78-19.14 54.23-18.75 53.68-18.36 53.12-18.36L53.12-18.36Q52.68-18.36 52.36-18.58 52.05-18.8 51.85-19.14L51.85-19.14 51.07-20.51Q53.05-22.41 55.33-23.35 57.61-24.29 60.4-24.29L60.4-24.29Q62.4-24.29 63.96-23.65 65.52-23 66.57-21.8 67.62-20.61 68.17-18.95 68.72-17.29 68.72-15.26L68.72-15.26 68.72 0ZM57.88-2.64L57.88-2.64Q58.95-2.64 59.86-2.86 60.76-3.08 61.57-3.48 62.37-3.88 63.09-4.48 63.81-5.08 64.52-5.81L64.52-5.81 64.52-10.74Q61.66-10.62 59.66-10.27 57.66-9.91 56.4-9.33 55.15-8.74 54.58-7.95 54.02-7.15 54.02-6.18L54.02-6.18Q54.02-5.25 54.33-4.58 54.63-3.91 55.15-3.48 55.66-3.05 56.37-2.84 57.08-2.64 57.88-2.64ZM79.29 0L74.99 0 74.99-23.88 77.46-23.88Q78.14-23.88 78.42-23.61 78.7-23.34 78.75-22.71L78.75-22.71 79.05-19.19Q80.14-21.56 81.76-22.92 83.37-24.29 85.64-24.29L85.64-24.29Q86.39-24.29 87.05-24.13 87.71-23.97 88.25-23.61L88.25-23.61 87.91-20.43Q87.83-19.82 87.22-19.82L87.22-19.82Q86.88-19.82 86.26-19.96 85.64-20.09 84.88-20.09L84.88-20.09Q83.78-20.09 82.94-19.76 82.1-19.43 81.43-18.79 80.75-18.14 80.24-17.21 79.73-16.28 79.29-15.09L79.29-15.09 79.29 0ZM109.12-21.14L108-19.58Q107.8-19.31 107.62-19.18 107.44-19.04 107.09-19.04L107.09-19.04Q106.73-19.04 106.34-19.34 105.95-19.63 105.36-19.98 104.78-20.34 103.93-20.63 103.09-20.92 101.87-20.92L101.87-20.92Q100.26-20.92 99.03-20.3 97.79-19.68 96.97-18.52 96.16-17.36 95.73-15.7 95.3-14.04 95.3-11.96L95.3-11.96Q95.3-9.81 95.75-8.14 96.21-6.47 97.04-5.32 97.87-4.17 99.04-3.58 100.21-2.98 101.67-2.98L101.67-2.98Q103.09-2.98 103.99-3.34 104.9-3.71 105.51-4.15 106.12-4.59 106.52-4.96 106.92-5.32 107.36-5.32L107.36-5.32Q107.85-5.32 108.14-4.91L108.14-4.91 109.39-3.34Q108.61-2.39 107.66-1.7 106.7-1 105.61-0.55 104.51-0.1 103.32 0.12 102.14 0.34 100.92 0.34L100.92 0.34Q98.82 0.34 96.99-0.49 95.16-1.32 93.8-2.89 92.45-4.47 91.68-6.75 90.91-9.03 90.91-11.96L90.91-11.96Q90.91-14.62 91.62-16.88 92.32-19.14 93.68-20.78 95.03-22.41 97.02-23.33 99.01-24.24 101.6-24.24L101.6-24.24Q104.04-24.24 105.87-23.43 107.7-22.61 109.12-21.14L109.12-21.14ZM118.15 0L113.85 0 113.85-34.72 118.15-34.72 118.15-20.73Q119.64-22.34 121.46-23.29 123.28-24.24 125.67-24.24L125.67-24.24Q127.62-24.24 129.1-23.6 130.58-22.95 131.58-21.77 132.58-20.58 133.08-18.91 133.58-17.24 133.58-15.21L133.58-15.21 133.58 0 129.28 0 129.28-15.21Q129.28-17.87 128.09-19.36 126.89-20.85 124.43-20.85L124.43-20.85Q122.59-20.85 121.03-19.97 119.47-19.09 118.15-17.55L118.15-17.55 118.15 0ZM165.46-21.46L164.51-19.92Q164.22-19.38 163.63-19.38L163.63-19.38Q163.26-19.38 162.84-19.65 162.41-19.92 161.81-20.23 161.21-20.53 160.4-20.8 159.58-21.07 158.45-21.07L158.45-21.07Q157.5-21.07 156.75-20.8 155.99-20.53 155.45-20.07 154.91-19.6 154.62-18.98 154.33-18.36 154.33-17.65L154.33-17.65Q154.33-16.72 154.82-16.11 155.3-15.5 156.11-15.06 156.92-14.62 157.95-14.27 158.99-13.92 160.07-13.55 161.14-13.18 162.18-12.7 163.21-12.21 164.02-11.5 164.83-10.79 165.31-9.78 165.8-8.76 165.8-7.32L165.8-7.32Q165.8-5.66 165.24-4.26 164.68-2.86 163.59-1.83 162.51-0.81 160.91-0.22 159.31 0.37 157.23 0.37L157.23 0.37Q154.87 0.37 152.92-0.44 150.98-1.25 149.64-2.54L149.64-2.54 150.64-4.15Q150.84-4.47 151.11-4.64 151.37-4.81 151.79-4.81L151.79-4.81Q152.23-4.81 152.67-4.48 153.11-4.15 153.73-3.75 154.35-3.34 155.23-3.02 156.11-2.69 157.43-2.69L157.43-2.69Q158.55-2.69 159.37-3 160.19-3.32 160.72-3.85 161.26-4.37 161.53-5.08 161.8-5.79 161.8-6.57L161.8-6.57Q161.8-7.54 161.3-8.19 160.8-8.84 159.99-9.29 159.19-9.74 158.15-10.08 157.11-10.42 156.02-10.8 154.94-11.18 153.9-11.66 152.86-12.13 152.06-12.88 151.25-13.62 150.75-14.7 150.25-15.77 150.25-17.31L150.25-17.31Q150.25-18.7 150.79-19.96 151.33-21.22 152.35-22.17 153.38-23.12 154.89-23.68 156.4-24.24 158.36-24.24L158.36-24.24Q160.58-24.24 162.38-23.51 164.19-22.78 165.46-21.46L165.46-21.46ZM170.17 0L170.17 0ZM171.07-23.88L175.37-23.88 175.37 0 171.07 0 171.07-23.88ZM176.2-31.35L176.2-31.35Q176.2-30.74 175.96-30.19 175.71-29.64 175.29-29.24 174.86-28.83 174.31-28.59 173.76-28.34 173.15-28.34L173.15-28.34Q172.54-28.34 172-28.59 171.46-28.83 171.06-29.24 170.66-29.64 170.41-30.19 170.17-30.74 170.17-31.35L170.17-31.35Q170.17-31.98 170.41-32.53 170.66-33.08 171.06-33.5 171.46-33.91 172-34.16 172.54-34.4 173.15-34.4L173.15-34.4Q173.76-34.4 174.31-34.16 174.86-33.91 175.29-33.5 175.71-33.08 175.96-32.53 176.2-31.98 176.2-31.35ZM186.84 0L182.55 0 182.55-23.88 185.08-23.88Q185.57-23.88 185.85-23.67 186.13-23.46 186.18-23L186.18-23 186.55-20.56Q187.23-21.36 187.98-22.03 188.72-22.71 189.58-23.21 190.43-23.71 191.41-23.97 192.38-24.24 193.48-24.24L193.48-24.24Q195.95-24.24 197.5-22.9 199.05-21.56 199.71-19.29L199.71-19.29Q200.22-20.61 201.06-21.53 201.91-22.46 202.93-23.07 203.96-23.68 205.13-23.96 206.3-24.24 207.52-24.24L207.52-24.24Q211.43-24.24 213.56-21.9 215.7-19.56 215.7-15.21L215.7-15.21 215.7 0 211.4 0 211.4-15.21Q211.4-17.99 210.13-19.42 208.86-20.85 206.5-20.85L206.5-20.85Q205.42-20.85 204.47-20.5 203.52-20.14 202.8-19.42 202.08-18.7 201.65-17.65 201.22-16.6 201.22-15.21L201.22-15.21 201.22 0 196.93 0 196.93-15.21Q196.93-18.07 195.74-19.46 194.56-20.85 192.26-20.85L192.26-20.85Q190.7-20.85 189.33-20.03 187.97-19.21 186.84-17.77L186.84-17.77 186.84 0ZM221.58 0L221.58 0ZM222.48-23.88L226.78-23.88 226.78 0 222.48 0 222.48-23.88ZM227.61-31.35L227.61-31.35Q227.61-30.74 227.37-30.19 227.12-29.64 226.7-29.24 226.27-28.83 225.72-28.59 225.17-28.34 224.56-28.34L224.56-28.34Q223.95-28.34 223.41-28.59 222.88-28.83 222.47-29.24 222.07-29.64 221.83-30.19 221.58-30.74 221.58-31.35L221.58-31.35Q221.58-31.98 221.83-32.53 222.07-33.08 222.47-33.5 222.88-33.91 223.41-34.16 223.95-34.4 224.56-34.4L224.56-34.4Q225.17-34.4 225.72-34.16 226.27-33.91 226.7-33.5 227.12-33.08 227.37-32.53 227.61-31.98 227.61-31.35ZM233.96-34.72L238.25-34.72 238.25 0 233.96 0 233.96-34.72ZM262.71 0L260.81 0Q260.18 0 259.83-0.2 259.49-0.39 259.37-1L259.37-1 258.83-3.22Q257.9-2.37 257.01-1.7 256.12-1.03 255.15-0.56 254.17-0.1 253.05 0.13 251.92 0.37 250.58 0.37L250.58 0.37Q249.19 0.37 247.98-0.01 246.77-0.39 245.86-1.18 244.94-1.98 244.42-3.16 243.89-4.35 243.89-5.96L243.89-5.96Q243.89-7.37 244.66-8.68 245.43-9.99 247.16-11.01 248.9-12.04 251.68-12.68 254.46-13.33 258.51-13.43L258.51-13.43 258.51-15.26Q258.51-18.04 257.33-19.45 256.15-20.85 253.88-20.85L253.88-20.85Q252.36-20.85 251.32-20.46 250.29-20.07 249.53-19.6 248.77-19.14 248.22-18.75 247.68-18.36 247.11-18.36L247.11-18.36Q246.67-18.36 246.36-18.58 246.04-18.8 245.84-19.14L245.84-19.14 245.06-20.51Q247.04-22.41 249.32-23.35 251.61-24.29 254.39-24.29L254.39-24.29Q256.39-24.29 257.95-23.65 259.52-23 260.57-21.8 261.62-20.61 262.16-18.95 262.71-17.29 262.71-15.26L262.71-15.26 262.71 0ZM251.87-2.64L251.87-2.64Q252.95-2.64 253.85-2.86 254.76-3.08 255.56-3.48 256.37-3.88 257.09-4.48 257.81-5.08 258.51-5.81L258.51-5.81 258.51-10.74Q255.66-10.62 253.66-10.27 251.65-9.91 250.4-9.33 249.14-8.74 248.58-7.95 248.02-7.15 248.02-6.18L248.02-6.18Q248.02-5.25 248.32-4.58 248.63-3.91 249.14-3.48 249.65-3.05 250.36-2.84 251.07-2.64 251.87-2.64ZM273.28 0L268.99 0 268.99-23.88 271.45-23.88Q272.14-23.88 272.42-23.61 272.7-23.34 272.75-22.71L272.75-22.71 273.04-19.19Q274.14-21.56 275.75-22.92 277.36-24.29 279.63-24.29L279.63-24.29Q280.39-24.29 281.05-24.13 281.71-23.97 282.24-23.61L282.24-23.61 281.9-20.43Q281.83-19.82 281.22-19.82L281.22-19.82Q280.88-19.82 280.25-19.96 279.63-20.09 278.87-20.09L278.87-20.09Q277.78-20.09 276.93-19.76 276.09-19.43 275.42-18.79 274.75-18.14 274.24-17.21 273.72-16.28 273.28-15.09L273.28-15.09 273.28 0ZM302.01 0L297.72 0 297.72-23.88 300.18-23.88Q300.87-23.88 301.15-23.61 301.43-23.34 301.48-22.71L301.48-22.71 301.77-19.19Q302.87-21.56 304.48-22.92 306.09-24.29 308.36-24.29L308.36-24.29Q309.12-24.29 309.78-24.13 310.44-23.97 310.97-23.61L310.97-23.61 310.63-20.43Q310.56-19.82 309.95-19.82L309.95-19.82Q309.61-19.82 308.98-19.96 308.36-20.09 307.6-20.09L307.6-20.09Q306.51-20.09 305.66-19.76 304.82-19.43 304.15-18.79 303.48-18.14 302.97-17.21 302.45-16.28 302.01-15.09L302.01-15.09 302.01 0ZM325.01-24.24L325.01-24.24Q327.16-24.24 328.99-23.54 330.82-22.83 332.16-21.46 333.5-20.09 334.26-18.12 335.02-16.14 335.02-13.57L335.02-13.57Q335.02-12.57 334.8-12.24 334.58-11.91 333.99-11.91L333.99-11.91 318.03-11.91Q318.08-9.67 318.64-8 319.2-6.32 320.19-5.22 321.18-4.13 322.54-3.58 323.91-3.03 325.59-3.03L325.59-3.03Q327.16-3.03 328.3-3.38 329.45-3.74 330.27-4.17 331.09-4.61 331.65-4.97 332.21-5.32 332.63-5.32L332.63-5.32Q332.89-5.32 333.09-5.21 333.29-5.1 333.43-4.91L333.43-4.91 334.65-3.34Q333.85-2.39 332.76-1.7 331.67-1 330.43-0.55 329.18-0.1 327.85 0.12 326.52 0.34 325.23 0.34L325.23 0.34Q322.74 0.34 320.64-0.49 318.54-1.32 317.01-2.94 315.49-4.57 314.63-6.95 313.78-9.33 313.78-12.43L313.78-12.43Q313.78-14.92 314.55-17.08 315.32-19.24 316.77-20.84 318.22-22.44 320.31-23.34 322.4-24.24 325.01-24.24ZM325.08-21.12L325.08-21.12Q322.08-21.12 320.33-19.36 318.59-17.6 318.15-14.55L318.15-14.55 331.16-14.55Q331.16-15.99 330.75-17.2 330.33-18.41 329.55-19.27 328.77-20.14 327.63-20.63 326.5-21.12 325.08-21.12ZM356.72-21.14L355.6-19.58Q355.4-19.31 355.22-19.18 355.04-19.04 354.69-19.04L354.69-19.04Q354.33-19.04 353.94-19.34 353.55-19.63 352.96-19.98 352.37-20.34 351.53-20.63 350.69-20.92 349.47-20.92L349.47-20.92Q347.86-20.92 346.62-20.3 345.39-19.68 344.57-18.52 343.76-17.36 343.33-15.7 342.9-14.04 342.9-11.96L342.9-11.96Q342.9-9.81 343.35-8.14 343.81-6.47 344.64-5.32 345.47-4.17 346.64-3.58 347.81-2.98 349.27-2.98L349.27-2.98Q350.69-2.98 351.59-3.34 352.5-3.71 353.11-4.15 353.72-4.59 354.12-4.96 354.52-5.32 354.96-5.32L354.96-5.32Q355.45-5.32 355.74-4.91L355.74-4.91 356.99-3.34Q356.21-2.39 355.26-1.7 354.3-1 353.2-0.55 352.11-0.1 350.92 0.12 349.74 0.34 348.52 0.34L348.52 0.34Q346.42 0.34 344.59-0.49 342.76-1.32 341.4-2.89 340.05-4.47 339.28-6.75 338.51-9.03 338.51-11.96L338.51-11.96Q338.51-14.62 339.22-16.88 339.92-19.14 341.28-20.78 342.63-22.41 344.62-23.33 346.61-24.24 349.2-24.24L349.2-24.24Q351.64-24.24 353.47-23.43 355.3-22.61 356.72-21.14L356.72-21.14ZM360.65 0L360.65 0ZM361.55-23.88L365.85-23.88 365.85 0 361.55 0 361.55-23.88ZM366.68-31.35L366.68-31.35Q366.68-30.74 366.43-30.19 366.19-29.64 365.76-29.24 365.34-28.83 364.79-28.59 364.24-28.34 363.63-28.34L363.63-28.34Q363.02-28.34 362.48-28.59 361.94-28.83 361.54-29.24 361.14-29.64 360.89-30.19 360.65-30.74 360.65-31.35L360.65-31.35Q360.65-31.98 360.89-32.53 361.14-33.08 361.54-33.5 361.94-33.91 362.48-34.16 363.02-34.4 363.63-34.4L363.63-34.4Q364.24-34.4 364.79-34.16 365.34-33.91 365.76-33.5 366.19-33.08 366.43-32.53 366.68-31.98 366.68-31.35ZM377.17 8.06L372.88 8.06 372.88-23.88 375.44-23.88Q375.9-23.88 376.2-23.67 376.49-23.46 376.54-23L376.54-23 376.95-20.21Q378.47-22.05 380.42-23.17 382.37-24.29 384.91-24.29L384.91-24.29Q386.96-24.29 388.62-23.5 390.28-22.71 391.46-21.17 392.63-19.63 393.26-17.36 393.9-15.09 393.9-12.11L393.9-12.11Q393.9-9.47 393.19-7.19 392.48-4.91 391.15-3.23 389.82-1.56 387.92-0.61 386.01 0.34 383.62 0.34L383.62 0.34Q381.45 0.34 379.91-0.39 378.37-1.12 377.17-2.44L377.17-2.44 377.17 8.06ZM383.5-20.85L383.5-20.85Q381.5-20.85 379.97-19.92 378.44-18.99 377.17-17.29L377.17-17.29 377.17-5.76Q378.3-4.22 379.65-3.6 381.01-2.98 382.67-2.98L382.67-2.98Q385.94-2.98 387.71-5.35 389.48-7.71 389.48-12.11L389.48-12.11Q389.48-14.43 389.08-16.09 388.67-17.75 387.9-18.81 387.14-19.87 386.02-20.36 384.91-20.85 383.5-20.85ZM408.76-24.24L408.76-24.24Q410.91-24.24 412.74-23.54 414.57-22.83 415.92-21.46 417.26-20.09 418.02-18.12 418.77-16.14 418.77-13.57L418.77-13.57Q418.77-12.57 418.55-12.24 418.33-11.91 417.75-11.91L417.75-11.91 401.78-11.91Q401.83-9.67 402.39-8 402.95-6.32 403.94-5.22 404.93-4.13 406.3-3.58 407.66-3.03 409.35-3.03L409.35-3.03Q410.91-3.03 412.06-3.38 413.21-3.74 414.02-4.17 414.84-4.61 415.4-4.97 415.97-5.32 416.38-5.32L416.38-5.32Q416.65-5.32 416.84-5.21 417.04-5.1 417.19-4.91L417.19-4.91 418.41-3.34Q417.6-2.39 416.51-1.7 415.43-1 414.18-0.55 412.94-0.1 411.61 0.12 410.28 0.34 408.98 0.34L408.98 0.34Q406.49 0.34 404.39-0.49 402.29-1.32 400.77-2.94 399.24-4.57 398.39-6.95 397.53-9.33 397.53-12.43L397.53-12.43Q397.53-14.92 398.3-17.08 399.07-19.24 400.52-20.84 401.98-22.44 404.06-23.34 406.15-24.24 408.76-24.24ZM408.84-21.12L408.84-21.12Q405.83-21.12 404.09-19.36 402.34-17.6 401.9-14.55L401.9-14.55 414.92-14.55Q414.92-15.99 414.5-17.2 414.09-18.41 413.3-19.27 412.52-20.14 411.39-20.63 410.25-21.12 408.84-21.12ZM438.11-21.46L437.15-19.92Q436.86-19.38 436.28-19.38L436.28-19.38Q435.91-19.38 435.48-19.65 435.05-19.92 434.46-20.23 433.86-20.53 433.04-20.8 432.22-21.07 431.1-21.07L431.1-21.07Q430.15-21.07 429.39-20.8 428.63-20.53 428.1-20.07 427.56-19.6 427.27-18.98 426.97-18.36 426.97-17.65L426.97-17.65Q426.97-16.72 427.46-16.11 427.95-15.5 428.76-15.06 429.56-14.62 430.6-14.27 431.64-13.92 432.71-13.55 433.79-13.18 434.82-12.7 435.86-12.21 436.67-11.5 437.47-10.79 437.96-9.78 438.45-8.76 438.45-7.32L438.45-7.32Q438.45-5.66 437.89-4.26 437.33-2.86 436.24-1.83 435.15-0.81 433.55-0.22 431.95 0.37 429.88 0.37L429.88 0.37Q427.51 0.37 425.57-0.44 423.63-1.25 422.29-2.54L422.29-2.54 423.29-4.15Q423.48-4.47 423.75-4.64 424.02-4.81 424.43-4.81L424.43-4.81Q424.87-4.81 425.31-4.48 425.75-4.15 426.38-3.75 427-3.34 427.88-3.02 428.76-2.69 430.07-2.69L430.07-2.69Q431.2-2.69 432.02-3 432.83-3.32 433.37-3.85 433.91-4.37 434.18-5.08 434.44-5.79 434.44-6.57L434.44-6.57Q434.44-7.54 433.94-8.19 433.44-8.84 432.64-9.29 431.83-9.74 430.79-10.08 429.76-10.42 428.67-10.8 427.58-11.18 426.55-11.66 425.51-12.13 424.7-12.88 423.9-13.62 423.4-14.7 422.9-15.77 422.9-17.31L422.9-17.31Q422.9-18.7 423.43-19.96 423.97-21.22 425-22.17 426.02-23.12 427.54-23.68 429.05-24.24 431-24.24L431-24.24Q433.22-24.24 435.03-23.51 436.84-22.78 438.11-21.46L438.11-21.46ZM457.73 0L454.95 0 454.95-34.72 459.24-34.72 459.24-20.48Q460.71-22.22 462.59-23.23 464.47-24.24 466.91-24.24L466.91-24.24Q468.99-24.24 470.65-23.44 472.31-22.63 473.48-21.12 474.65-19.6 475.27-17.44 475.89-15.28 475.89-12.55L475.89-12.55Q475.89-9.64 475.19-7.28 474.48-4.91 473.16-3.21 471.84-1.51 469.96-0.59 468.08 0.34 465.74 0.34L465.74 0.34Q463.39 0.34 461.82-0.55 460.25-1.44 459.02-3.03L459.02-3.03 458.78-0.9Q458.68 0 457.73 0L457.73 0ZM465.47-20.85L465.47-20.85Q463.49-20.85 461.99-19.92 460.49-18.99 459.24-17.29L459.24-17.29 459.24-5.76Q460.37-4.22 461.71-3.6 463.05-2.98 464.66-2.98L464.66-2.98Q467.96-2.98 469.72-5.35 471.48-7.71 471.48-12.4L471.48-12.4Q471.48-16.75 469.91-18.8 468.35-20.85 465.47-20.85ZM498.57 0L496.67 0Q496.03 0 495.69-0.2 495.35-0.39 495.23-1L495.23-1 494.69-3.22Q493.76-2.37 492.87-1.7 491.98-1.03 491-0.56 490.03-0.1 488.9 0.13 487.78 0.37 486.44 0.37L486.44 0.37Q485.05 0.37 483.84-0.01 482.63-0.39 481.71-1.18 480.8-1.98 480.27-3.16 479.75-4.35 479.75-5.96L479.75-5.96Q479.75-7.37 480.52-8.68 481.29-9.99 483.02-11.01 484.75-12.04 487.54-12.68 490.32-13.33 494.37-13.43L494.37-13.43 494.37-15.26Q494.37-18.04 493.19-19.45 492.01-20.85 489.73-20.85L489.73-20.85Q488.22-20.85 487.18-20.46 486.15-20.07 485.39-19.6 484.63-19.14 484.08-18.75 483.53-18.36 482.97-18.36L482.97-18.36Q482.53-18.36 482.22-18.58 481.9-18.8 481.7-19.14L481.7-19.14 480.92-20.51Q482.9-22.41 485.18-23.35 487.46-24.29 490.25-24.29L490.25-24.29Q492.25-24.29 493.81-23.65 495.37-23 496.42-21.8 497.47-20.61 498.02-18.95 498.57-17.29 498.57-15.26L498.57-15.26 498.57 0ZM487.73-2.64L487.73-2.64Q488.81-2.64 489.71-2.86 490.61-3.08 491.42-3.48 492.23-3.88 492.95-4.48 493.67-5.08 494.37-5.81L494.37-5.81 494.37-10.74Q491.52-10.62 489.52-10.27 487.51-9.91 486.26-9.33 485-8.74 484.44-7.95 483.88-7.15 483.88-6.18L483.88-6.18Q483.88-5.25 484.18-4.58 484.49-3.91 485-3.48 485.51-3.05 486.22-2.84 486.93-2.64 487.73-2.64ZM519.18-21.46L518.22-19.92Q517.93-19.38 517.34-19.38L517.34-19.38Q516.98-19.38 516.55-19.65 516.12-19.92 515.53-20.23 514.93-20.53 514.11-20.8 513.29-21.07 512.17-21.07L512.17-21.07Q511.22-21.07 510.46-20.8 509.7-20.53 509.17-20.07 508.63-19.6 508.34-18.98 508.04-18.36 508.04-17.65L508.04-17.65Q508.04-16.72 508.53-16.11 509.02-15.5 509.83-15.06 510.63-14.62 511.67-14.27 512.71-13.92 513.78-13.55 514.85-13.18 515.89-12.7 516.93-12.21 517.74-11.5 518.54-10.79 519.03-9.78 519.52-8.76 519.52-7.32L519.52-7.32Q519.52-5.66 518.96-4.26 518.39-2.86 517.31-1.83 516.22-0.81 514.62-0.22 513.02 0.37 510.95 0.37L510.95 0.37Q508.58 0.37 506.64-0.44 504.7-1.25 503.36-2.54L503.36-2.54 504.36-4.15Q504.55-4.47 504.82-4.64 505.09-4.81 505.5-4.81L505.5-4.81Q505.94-4.81 506.38-4.48 506.82-4.15 507.44-3.75 508.07-3.34 508.95-3.02 509.83-2.69 511.14-2.69L511.14-2.69Q512.27-2.69 513.08-3 513.9-3.32 514.44-3.85 514.98-4.37 515.25-5.08 515.51-5.79 515.51-6.57L515.51-6.57Q515.51-7.54 515.01-8.19 514.51-8.84 513.71-9.29 512.9-9.74 511.86-10.08 510.83-10.42 509.74-10.8 508.65-11.18 507.62-11.66 506.58-12.13 505.77-12.88 504.97-13.62 504.47-14.7 503.97-15.77 503.97-17.31L503.97-17.31Q503.97-18.7 504.5-19.96 505.04-21.22 506.07-22.17 507.09-23.12 508.6-23.68 510.12-24.24 512.07-24.24L512.07-24.24Q514.29-24.24 516.1-23.51 517.91-22.78 519.18-21.46L519.18-21.46ZM534.26-24.24L534.26-24.24Q536.41-24.24 538.24-23.54 540.07-22.83 541.41-21.46 542.76-20.09 543.51-18.12 544.27-16.14 544.27-13.57L544.27-13.57Q544.27-12.57 544.05-12.24 543.83-11.91 543.25-11.91L543.25-11.91 527.28-11.91Q527.33-9.67 527.89-8 528.45-6.32 529.44-5.22 530.43-4.13 531.8-3.58 533.16-3.03 534.85-3.03L534.85-3.03Q536.41-3.03 537.56-3.38 538.7-3.74 539.52-4.17 540.34-4.61 540.9-4.97 541.46-5.32 541.88-5.32L541.88-5.32Q542.15-5.32 542.34-5.21 542.54-5.1 542.68-4.91L542.68-4.91 543.9-3.34Q543.1-2.39 542.01-1.7 540.93-1 539.68-0.55 538.44-0.1 537.11 0.12 535.77 0.34 534.48 0.34L534.48 0.34Q531.99 0.34 529.89-0.49 527.79-1.32 526.27-2.94 524.74-4.57 523.89-6.95 523.03-9.33 523.03-12.43L523.03-12.43Q523.03-14.92 523.8-17.08 524.57-19.24 526.02-20.84 527.47-22.44 529.56-23.34 531.65-24.24 534.26-24.24ZM534.33-21.12L534.33-21.12Q531.33-21.12 529.59-19.36 527.84-17.6 527.4-14.55L527.4-14.55 540.41-14.55Q540.41-15.99 540-17.2 539.58-18.41 538.8-19.27 538.02-20.14 536.89-20.63 535.75-21.12 534.33-21.12ZM568.83 0L566.27 0Q565.8 0 565.51-0.21 565.22-0.42 565.17-0.88L565.17-0.88 564.73-3.74Q563.21-1.9 561.29-0.78 559.36 0.34 556.82 0.34L556.82 0.34Q554.79 0.34 553.14-0.45 551.49-1.25 550.32-2.78 549.15-4.32 548.52-6.6 547.88-8.89 547.88-11.87L547.88-11.87Q547.88-14.5 548.58-16.78 549.27-19.07 550.59-20.73 551.91-22.39 553.8-23.34 555.69-24.29 558.09-24.29L558.09-24.29Q560.26-24.29 561.8-23.57 563.34-22.85 564.53-21.51L564.53-21.51 564.53-34.72 568.83-34.72 568.83 0ZM558.21-3.1L558.21-3.1Q560.24-3.1 561.74-4.04 563.24-4.98 564.53-6.67L564.53-6.67 564.53-18.21Q563.38-19.75 562.04-20.37 560.7-21 559.06-21L559.06-21Q555.82-21 554.06-18.63 552.3-16.26 552.3-11.87L552.3-11.87Q552.3-9.55 552.7-7.89 553.11-6.23 553.86-5.16 554.62-4.1 555.72-3.6 556.82-3.1 558.21-3.1ZM596.85-24.24L596.85-24.24Q599.46-24.24 601.56-23.38 603.66-22.51 605.13-20.91 606.59-19.31 607.39-17.04 608.18-14.77 608.18-11.96L608.18-11.96Q608.18-9.13 607.39-6.86 606.59-4.59 605.13-2.99 603.66-1.39 601.56-0.52 599.46 0.34 596.85 0.34L596.85 0.34Q594.24 0.34 592.13-0.52 590.02-1.39 588.54-2.99 587.06-4.59 586.27-6.86 585.47-9.13 585.47-11.96L585.47-11.96Q585.47-14.77 586.27-17.04 587.06-19.31 588.54-20.91 590.02-22.51 592.13-23.38 594.24-24.24 596.85-24.24ZM596.85-3L596.85-3Q598.58-3 599.88-3.6 601.17-4.2 602.04-5.35 602.91-6.49 603.33-8.15 603.76-9.81 603.76-11.94L603.76-11.94Q603.76-14.06 603.33-15.72 602.91-17.38 602.04-18.53 601.17-19.68 599.88-20.29 598.58-20.9 596.85-20.9L596.85-20.9Q595.09-20.9 593.79-20.29 592.48-19.68 591.61-18.53 590.75-17.38 590.32-15.72 589.89-14.06 589.89-11.94L589.89-11.94Q589.89-9.81 590.32-8.15 590.75-6.49 591.61-5.35 592.48-4.2 593.79-3.6 595.09-3 596.85-3ZM617.72 0L613.43 0 613.43-23.88 615.99-23.88Q616.45-23.88 616.75-23.67 617.04-23.46 617.09-23L617.09-23 617.45-20.46Q618.99-22.17 620.9-23.21 622.8-24.24 625.29-24.24L625.29-24.24Q627.24-24.24 628.72-23.6 630.2-22.95 631.2-21.77 632.2-20.58 632.71-18.91 633.23-17.24 633.23-15.21L633.23-15.21 633.23 0 628.93 0 628.93-15.21Q628.93-17.87 627.72-19.36 626.51-20.85 624.05-20.85L624.05-20.85Q622.22-20.85 620.63-19.98 619.04-19.12 617.72-17.58L617.72-17.58 617.72 0ZM650.26 0L650.26 0ZM651.17-23.88L655.46-23.88 655.46 0 651.17 0 651.17-23.88ZM656.29-31.35L656.29-31.35Q656.29-30.74 656.05-30.19 655.8-29.64 655.38-29.24 654.95-28.83 654.4-28.59 653.85-28.34 653.24-28.34L653.24-28.34Q652.63-28.34 652.09-28.59 651.56-28.83 651.15-29.24 650.75-29.64 650.51-30.19 650.26-30.74 650.26-31.35L650.26-31.35Q650.26-31.98 650.51-32.53 650.75-33.08 651.15-33.5 651.56-33.91 652.09-34.16 652.63-34.4 653.24-34.4L653.24-34.4Q653.85-34.4 654.4-34.16 654.95-33.91 655.38-33.5 655.8-33.08 656.05-32.53 656.29-31.98 656.29-31.35ZM666.76 0L662.47 0 662.47-23.88 665.03-23.88Q665.49-23.88 665.79-23.67 666.08-23.46 666.13-23L666.13-23 666.49-20.46Q668.03-22.17 669.94-23.21 671.84-24.24 674.33-24.24L674.33-24.24Q676.28-24.24 677.76-23.6 679.24-22.95 680.24-21.77 681.24-20.58 681.75-18.91 682.27-17.24 682.27-15.21L682.27-15.21 682.27 0 677.97 0 677.97-15.21Q677.97-17.87 676.76-19.36 675.55-20.85 673.09-20.85L673.09-20.85Q671.26-20.85 669.67-19.98 668.08-19.12 666.76-17.58L666.76-17.58 666.76 0ZM696.59-24.27L696.59-24.27Q698.08-24.27 699.38-23.93 700.67-23.58 701.72-22.95L701.72-22.95 707.97-22.95 707.97-21.36Q707.97-20.51 707-20.36L707-20.36 704.46-20Q705.21-18.43 705.21-16.58L705.21-16.58Q705.21-14.82 704.57-13.4 703.92-11.99 702.77-10.99 701.62-9.99 700.05-9.44 698.47-8.89 696.59-8.89L696.59-8.89Q695.03-8.89 693.71-9.25L693.71-9.25Q693.01-8.79 692.66-8.26 692.32-7.74 692.32-7.23L692.32-7.23Q692.32-6.37 692.98-5.96 693.64-5.54 694.71-5.35 695.79-5.15 697.16-5.1 698.52-5.05 699.95-4.94 701.38-4.83 702.75-4.59 704.11-4.35 705.19-3.75 706.26-3.15 706.92-2.11 707.58-1.07 707.58 0.59L707.58 0.59Q707.58 2.12 706.85 3.56 706.12 5 704.74 6.13 703.36 7.25 701.37 7.92 699.38 8.59 696.86 8.59L696.86 8.59Q694.35 8.59 692.47 8.08 690.59 7.57 689.34 6.69 688.1 5.81 687.49 4.66 686.88 3.52 686.88 2.27L686.88 2.27Q686.88 0.51 687.92-0.71 688.95-1.93 690.78-2.64L690.78-2.64Q689.78-3.1 689.2-3.91 688.61-4.71 688.61-6.05L688.61-6.05Q688.61-7.08 689.34-8.23 690.08-9.38 691.54-10.13L691.54-10.13Q689.86-11.13 688.89-12.77 687.93-14.4 687.93-16.58L687.93-16.58Q687.93-18.33 688.57-19.75 689.22-21.17 690.37-22.18 691.52-23.19 693.1-23.73 694.69-24.27 696.59-24.27ZM703.63 1.29L703.63 1.29Q703.63 0.44 703.17-0.1 702.72-0.63 701.94-0.94 701.16-1.25 700.13-1.38 699.11-1.51 697.96-1.59 696.81-1.66 695.63-1.71 694.45-1.76 693.35-1.93L693.35-1.93Q692.15-1.29 691.39-0.4 690.64 0.49 690.64 1.73L690.64 1.73Q690.64 2.54 691 3.22 691.37 3.91 692.14 4.41 692.91 4.91 694.1 5.2 695.3 5.49 696.94 5.49L696.94 5.49Q698.55 5.49 699.79 5.18 701.04 4.86 701.89 4.31 702.75 3.76 703.19 2.99 703.63 2.22 703.63 1.29ZM696.59-11.72L696.59-11.72Q698.96-11.72 700.17-13.04 701.38-14.36 701.38-16.48L701.38-16.48Q701.38-18.65 700.17-19.93 698.96-21.22 696.59-21.22L696.59-21.22Q694.28-21.22 693.07-19.93 691.86-18.65 691.86-16.48L691.86-16.48Q691.86-15.43 692.16-14.56 692.47-13.7 693.07-13.06 693.66-12.43 694.56-12.07 695.45-11.72 696.59-11.72ZM716.34 0L712.05 0 712.05-23.88 714.51-23.88Q715.2-23.88 715.48-23.61 715.76-23.34 715.81-22.71L715.81-22.71 716.1-19.19Q717.2-21.56 718.81-22.92 720.42-24.29 722.69-24.29L722.69-24.29Q723.45-24.29 724.11-24.13 724.77-23.97 725.3-23.61L725.3-23.61 724.96-20.43Q724.89-19.82 724.28-19.82L724.28-19.82Q723.94-19.82 723.31-19.96 722.69-20.09 721.93-20.09L721.93-20.09Q720.84-20.09 719.99-19.76 719.15-19.43 718.48-18.79 717.81-18.14 717.3-17.21 716.78-16.28 716.34-15.09L716.34-15.09 716.34 0ZM739.34-24.24L739.34-24.24Q741.49-24.24 743.32-23.54 745.15-22.83 746.49-21.46 747.83-20.09 748.59-18.12 749.35-16.14 749.35-13.57L749.35-13.57Q749.35-12.57 749.13-12.24 748.91-11.91 748.32-11.91L748.32-11.91 732.36-11.91Q732.41-9.67 732.97-8 733.53-6.32 734.52-5.22 735.51-4.13 736.87-3.58 738.24-3.03 739.92-3.03L739.92-3.03Q741.49-3.03 742.63-3.38 743.78-3.74 744.6-4.17 745.42-4.61 745.98-4.97 746.54-5.32 746.96-5.32L746.96-5.32Q747.22-5.32 747.42-5.21 747.62-5.1 747.76-4.91L747.76-4.91 748.98-3.34Q748.18-2.39 747.09-1.7 746-1 744.76-0.55 743.51-0.1 742.18 0.12 740.85 0.34 739.56 0.34L739.56 0.34Q737.07 0.34 734.97-0.49 732.87-1.32 731.34-2.94 729.82-4.57 728.96-6.95 728.11-9.33 728.11-12.43L728.11-12.43Q728.11-14.92 728.88-17.08 729.65-19.24 731.1-20.84 732.55-22.44 734.64-23.34 736.73-24.24 739.34-24.24ZM739.41-21.12L739.41-21.12Q736.41-21.12 734.66-19.36 732.92-17.6 732.48-14.55L732.48-14.55 745.49-14.55Q745.49-15.99 745.08-17.2 744.66-18.41 743.88-19.27 743.1-20.14 741.96-20.63 740.83-21.12 739.41-21.12ZM773.91 0L771.34 0Q770.88 0 770.59-0.21 770.29-0.42 770.24-0.88L770.24-0.88 769.8-3.74Q768.29-1.9 766.36-0.78 764.43 0.34 761.89 0.34L761.89 0.34Q759.87 0.34 758.22-0.45 756.57-1.25 755.4-2.78 754.23-4.32 753.59-6.6 752.96-8.89 752.96-11.87L752.96-11.87Q752.96-14.5 753.66-16.78 754.35-19.07 755.67-20.73 756.99-22.39 758.88-23.34 760.77-24.29 763.16-24.29L763.16-24.29Q765.34-24.29 766.88-23.57 768.41-22.85 769.61-21.51L769.61-21.51 769.61-34.72 773.91-34.72 773.91 0ZM763.29-3.1L763.29-3.1Q765.31-3.1 766.81-4.04 768.32-4.98 769.61-6.67L769.61-6.67 769.61-18.21Q768.46-19.75 767.12-20.37 765.78-21 764.14-21L764.14-21Q760.89-21 759.14-18.63 757.38-16.26 757.38-11.87L757.38-11.87Q757.38-9.55 757.78-7.89 758.18-6.23 758.94-5.16 759.7-4.1 760.8-3.6 761.89-3.1 763.29-3.1ZM780.11 0L780.11 0ZM781.01-23.88L785.31-23.88 785.31 0 781.01 0 781.01-23.88ZM786.14-31.35L786.14-31.35Q786.14-30.74 785.89-30.19 785.65-29.64 785.22-29.24 784.79-28.83 784.24-28.59 783.69-28.34 783.08-28.34L783.08-28.34Q782.47-28.34 781.94-28.59 781.4-28.83 781-29.24 780.59-29.64 780.35-30.19 780.11-30.74 780.11-31.35L780.11-31.35Q780.11-31.98 780.35-32.53 780.59-33.08 781-33.5 781.4-33.91 781.94-34.16 782.47-34.4 783.08-34.4L783.08-34.4Q783.69-34.4 784.24-34.16 784.79-33.91 785.22-33.5 785.65-33.08 785.89-32.53 786.14-31.98 786.14-31.35ZM801.95-24.24L801.95-24.24Q804.1-24.24 805.93-23.54 807.76-22.83 809.11-21.46 810.45-20.09 811.21-18.12 811.96-16.14 811.96-13.57L811.96-13.57Q811.96-12.57 811.74-12.24 811.52-11.91 810.94-11.91L810.94-11.91 794.97-11.91Q795.02-9.67 795.58-8 796.14-6.32 797.13-5.22 798.12-4.13 799.49-3.58 800.85-3.03 802.54-3.03L802.54-3.03Q804.1-3.03 805.25-3.38 806.4-3.74 807.21-4.17 808.03-4.61 808.59-4.97 809.16-5.32 809.57-5.32L809.57-5.32Q809.84-5.32 810.03-5.21 810.23-5.1 810.38-4.91L810.38-4.91 811.6-3.34Q810.79-2.39 809.7-1.7 808.62-1 807.37-0.55 806.13-0.1 804.8 0.12 803.47 0.34 802.17 0.34L802.17 0.34Q799.68 0.34 797.58-0.49 795.48-1.32 793.96-2.94 792.43-4.57 791.58-6.95 790.72-9.33 790.72-12.43L790.72-12.43Q790.72-14.92 791.49-17.08 792.26-19.24 793.71-20.84 795.17-22.44 797.25-23.34 799.34-24.24 801.95-24.24ZM802.03-21.12L802.03-21.12Q799.02-21.12 797.28-19.36 795.53-17.6 795.09-14.55L795.09-14.55 808.11-14.55Q808.11-15.99 807.69-17.2 807.28-18.41 806.49-19.27 805.71-20.14 804.58-20.63 803.44-21.12 802.03-21.12ZM821.48 0L817.19 0 817.19-23.88 819.75-23.88Q820.21-23.88 820.51-23.67 820.8-23.46 820.85-23L820.85-23 821.21-20.46Q822.75-22.17 824.66-23.21 826.56-24.24 829.05-24.24L829.05-24.24Q831-24.24 832.48-23.6 833.96-22.95 834.96-21.77 835.96-20.58 836.47-18.91 836.98-17.24 836.98-15.21L836.98-15.21 836.98 0 832.69 0 832.69-15.21Q832.69-17.87 831.48-19.36 830.27-20.85 827.81-20.85L827.81-20.85Q825.97-20.85 824.39-19.98 822.8-19.12 821.48-17.58L821.48-17.58 821.48 0ZM850.21 0.37L850.21 0.37Q847.46 0.37 845.97-1.22 844.48-2.81 844.48-5.76L844.48-5.76 844.48-20.31 841.74-20.31Q841.38-20.31 841.12-20.56 840.86-20.8 840.86-21.26L840.86-21.26 840.86-22.97 844.62-23.46 845.63-30.81Q845.67-31.18 845.93-31.4 846.19-31.62 846.58-31.62L846.58-31.62 848.77-31.62 848.77-23.44 855.34-23.44 855.34-20.31 848.77-20.31 848.77-6.05Q848.77-4.59 849.45-3.86 850.12-3.13 851.19-3.13L851.19-3.13Q851.83-3.13 852.28-3.3 852.73-3.47 853.05-3.69 853.36-3.91 853.6-4.08 853.83-4.25 854.02-4.25L854.02-4.25Q854.24-4.25 854.38-4.15 854.51-4.05 854.63-3.83L854.63-3.83 855.9-1.78Q854.8-0.76 853.32-0.2 851.83 0.37 850.21 0.37ZM874.31-21.46L873.36-19.92Q873.06-19.38 872.48-19.38L872.48-19.38Q872.11-19.38 871.68-19.65 871.26-19.92 870.66-20.23 870.06-20.53 869.24-20.8 868.43-21.07 867.3-21.07L867.3-21.07Q866.35-21.07 865.59-20.8 864.84-20.53 864.3-20.07 863.76-19.6 863.47-18.98 863.18-18.36 863.18-17.65L863.18-17.65Q863.18-16.72 863.66-16.11 864.15-15.5 864.96-15.06 865.76-14.62 866.8-14.27 867.84-13.92 868.91-13.55 869.99-13.18 871.03-12.7 872.06-12.21 872.87-11.5 873.67-10.79 874.16-9.78 874.65-8.76 874.65-7.32L874.65-7.32Q874.65-5.66 874.09-4.26 873.53-2.86 872.44-1.83 871.35-0.81 869.76-0.22 868.16 0.37 866.08 0.37L866.08 0.37Q863.71 0.37 861.77-0.44 859.83-1.25 858.49-2.54L858.49-2.54 859.49-4.15Q859.69-4.47 859.95-4.64 860.22-4.81 860.64-4.81L860.64-4.81Q861.08-4.81 861.52-4.48 861.96-4.15 862.58-3.75 863.2-3.34 864.08-3.02 864.96-2.69 866.28-2.69L866.28-2.69Q867.4-2.69 868.22-3 869.04-3.32 869.57-3.85 870.11-4.37 870.38-5.08 870.65-5.79 870.65-6.57L870.65-6.57Q870.65-7.54 870.15-8.19 869.65-8.84 868.84-9.29 868.03-9.74 867-10.08 865.96-10.42 864.87-10.8 863.79-11.18 862.75-11.66 861.71-12.13 860.91-12.88 860.1-13.62 859.6-14.7 859.1-15.77 859.1-17.31L859.1-17.31Q859.1-18.7 859.64-19.96 860.17-21.22 861.2-22.17 862.22-23.12 863.74-23.68 865.25-24.24 867.2-24.24L867.2-24.24Q869.43-24.24 871.23-23.51 873.04-22.78 874.31-21.46L874.31-21.46Z" opacity="1" transform="matrix(1,0,0,1,0,0)" fill="#ff5858" class="slogan-text-1" data-fill-palette-color="secondary" id="text-1"></path></svg></g></svg></g></svg></g></svg></g><g transform="matrix(1,0,0,1,148.2041679027176,0)"><svg viewBox="0 0 99.11166419456484 99.11040875843771" height="99.11040875843771" width="99.11166419456484"><g><svg xmlns="http://www.w3.org/2000/svg" xmlns:xlink="http://www.w3.org/1999/xlink" version="1.1" x="0" y="0" viewBox="0 0 32.000405345478555 32" enable-background="new 0 0 32 32" xml:space="preserve" width="99.11166419456484" height="99.11040875843771" class="icon-icon-0" data-fill-palette-color="accent" id="icon-0"><g fill="#ff5858" data-fill-palette-color="accent"><path fill="#ff5858" d="M29.5 21h-2.691c-0.045-0.239-0.1-0.473-0.16-0.706l4.799-2.399c0.494-0.247 0.693-0.848 0.447-1.342-0.248-0.494-0.846-0.692-1.342-0.447l-4.578 2.288C24.229 14.626 20.42 12 16 12c-5.382 0-9.865 3.888-10.809 9H2.5C1.122 21 0 22.121 0 23.5c0 0.49 0.18 0.963 0.505 1.329L4 28.761V29.5C4 30.879 5.122 32 6.5 32h19c1.379 0 2.5-1.121 2.5-2.5v-0.739l3.494-3.932C31.82 24.463 32 23.99 32 23.5 32 22.121 30.879 21 29.5 21zM25.799 21h-0.562l0.498-0.25C25.754 20.834 25.781 20.915 25.799 21zM16 13c4.029 0 7.5 2.4 9.082 5.841l-0.891 0.445C22.775 16.171 19.645 14 16 14c-4.282 0-7.859 2.993-8.77 7H6.202C7.131 16.441 11.171 13 16 13zM20.576 21c-0.773-1.763-2.531-3-4.576-3s-3.802 1.237-4.576 3H10.35c0.826-2.326 3.043-4 5.65-4 2.465 0 4.588 1.496 5.508 3.627L20.764 21H20.576zM16 20c-0.883 0-1.67 0.391-2.22 1h-1.224c0.694-1.189 1.97-2 3.444-2 1.473 0 2.75 0.811 3.443 2h-1.225C17.67 20.391 16.883 20 16 20zM16 16c-3.165 0-5.842 2.112-6.705 5H8.263c0.892-3.444 4.017-6 7.737-6 3.246 0 6.043 1.948 7.295 4.734l-0.893 0.446C21.314 17.723 18.855 16 16 16zM26 28v1.5c0 0.276-0.225 0.5-0.5 0.5h-19C6.224 30 6 29.776 6 29.5V28l-4-4.5C2 23.224 2.224 23 2.5 23H5h1 1 1 1 1 1 1 1 6 1 1 1 1 1 1 1 1 2.5c0.275 0 0.5 0.224 0.5 0.5L26 28z" data-fill-palette-color="accent"></path><path fill="#ff5858" d="M7.977 11.712c0.003 0.006 0.005 0.012 0.008 0.018 0 0 0.001 0 0.002 0C8.07 11.89 8.236 12 8.43 12c0.277 0 0.502-0.226 0.502-0.503 0-0.043-0.007-0.085-0.018-0.125 0.002-0.007 0.002-0.013 0-0.02-0.375-0.882-0.019-1.85 0.419-2.892 0.473-1.126 0.98-2.376 0.422-3.647C9.684 4.63 9.507 4.5 9.299 4.5c-0.271 0-0.49 0.22-0.49 0.49 0 0.06 0.012 0.116 0.032 0.169 0 0.002 0 0.004 0.001 0.006 0.001 0.003 0.002 0.006 0.003 0.009C8.847 5.178 8.848 5.182 8.85 5.186c0.404 0.909 0.013 1.841-0.428 2.893C7.956 9.188 7.44 10.417 7.959 11.67 7.965 11.685 7.97 11.698 7.977 11.712z" data-fill-palette-color="accent"></path><path fill="#ff5858" d="M20.154 11.566c0.004 0.006 0.006 0.012 0.008 0.018h0.002c0.084 0.16 0.25 0.271 0.443 0.271 0.277 0 0.504-0.226 0.504-0.503 0-0.043-0.008-0.085-0.018-0.125 0.002-0.007 0.002-0.013-0.002-0.02-0.373-0.882-0.018-1.85 0.42-2.892 0.473-1.126 0.98-2.376 0.422-3.647-0.072-0.184-0.248-0.313-0.457-0.313-0.27 0-0.49 0.22-0.49 0.49 0 0.06 0.014 0.116 0.033 0.169 0 0.002 0 0.004 0 0.006 0.002 0.003 0.002 0.006 0.004 0.009 0.002 0.004 0.004 0.008 0.004 0.012 0.404 0.909 0.014 1.841-0.428 2.893-0.465 1.109-0.98 2.339-0.461 3.592C20.143 11.539 20.148 11.553 20.154 11.566z" data-fill-palette-color="accent"></path><path fill="#ff5858" d="M15.019 7.212c0.003 0.006 0.005 0.012 0.008 0.018 0 0 0.001 0 0.002 0 0.084 0.16 0.25 0.271 0.443 0.271 0.277 0 0.502-0.226 0.502-0.503 0-0.043-0.007-0.085-0.018-0.125 0.002-0.007 0.002-0.013 0-0.02-0.375-0.882-0.019-1.85 0.419-2.892 0.473-1.126 0.98-2.376 0.422-3.647C16.725 0.13 16.549 0 16.34 0c-0.27 0-0.49 0.22-0.49 0.49 0 0.06 0.012 0.116 0.032 0.169 0 0.002 0 0.004 0.001 0.006 0.001 0.003 0.002 0.006 0.003 0.009 0.001 0.004 0.003 0.008 0.004 0.012 0.404 0.909 0.013 1.841-0.428 2.893-0.466 1.109-0.982 2.339-0.462 3.592C15.007 7.185 15.012 7.198 15.019 7.212z" data-fill-palette-color="accent"></path></g></svg></g></svg></g><g></g></svg></g><defs></defs></svg><rect width="395.52" height="158.39726381574457" fill="none" stroke="none" visibility="hidden"></rect></g></svg></g></svg>